<?xml version="1.0" standalone="no"?>
<!DOCTYPE svg PUBLIC "-//W3C//DTD SVG 20010904//EN"
 "http://www.w3.org/TR/2001/REC-SVG-20010904/DTD/svg10.dtd">
<svg version="1.0" xmlns="http://www.w3.org/2000/svg"
 width="268.000000pt" height="268.000000pt" viewBox="0 0 268.000000 268.000000"
 preserveAspectRatio="xMidYMid meet">
<metadata>
Created by potrace 1.14, written by Peter Selinger 2001-2017
</metadata>
<g transform="translate(0.000000,268.000000) scale(0.100000,-0.100000)"
fill="#000000" stroke="none">
<path d="M1484 2222 c-18 -3 -27 -25 -63 -155 -23 -84 -47 -165 -52 -182 -9
-29 -56 -198 -84 -301 -8 -29 -52 -186 -99 -350 -138 -487 -171 -607 -180
-645 -2 -8 -11 -40 -20 -69 -9 -30 -16 -58 -16 -64 0 -7 40 -10 123 -8 l123 3
18 67 c10 37 119 424 242 861 124 437 227 806 230 820 l5 26 -103 0 c-57 0
-112 -1 -124 -3z"/>
<path d="M236 1618 c-119 -121 -218 -223 -219 -228 -1 -4 97 -108 217 -230
l219 -223 164 -1 163 -1 -226 226 -226 226 221 222 c121 121 221 222 221 224
0 2 -72 4 -159 4 l-159 1 -216 -220z"/>
<path d="M1910 1833 c0 -3 96 -101 212 -219 117 -117 214 -218 216 -224 2 -5
-93 -107 -212 -227 -118 -120 -213 -220 -210 -222 2 -3 72 -5 154 -6 l150 0
226 226 227 227 -225 224 -225 225 -157 0 c-86 0 -156 -2 -156 -4z"/>
</g>
</svg>
